<svg width="35" height="35" viewBox="0 0 35 35" fill="none" xmlns="http://www.w3.org/2000/svg">
<g clip-path="url(#clip0_136_26)">
<path d="M33.9944 15.817L31.3308 13.153C30.9594 12.7809 30.4553 12.5722 29.9302 12.5722C29.4043 12.5722 28.9002 12.7813 28.5292 13.153L27.7924 13.8902V0H0.425293V35H27.7924V24.9201L33.9944 18.6182C34.7686 17.8452 34.7686 16.5904 33.9944 15.817ZM24.8203 32.0286H3.39669V2.97177H24.8206V16.9267L22.2188 19.5297V17.5H6.24616V19.5431H22.2045L17.4937 24.2555C17.2611 24.4885 17.0898 24.7765 16.9959 25.091L15.8623 28.902C15.6551 29.5991 15.8466 30.3535 16.3609 30.8677C16.7371 31.2451 17.2431 31.4482 17.7615 31.4482C17.95 31.4482 18.14 31.4212 18.3262 31.3655L22.1376 30.2323C22.4533 30.1384 22.7401 29.9675 22.9735 29.7345L24.8199 27.8892L24.8203 32.0286ZM21.488 28.3937L17.6766 29.5273L18.8102 25.7159L27.3616 17.1612L30.0439 19.8431L21.488 28.3937ZM30.9183 18.8673L28.2551 16.2034L29.8445 14.6131L32.5085 17.2767L30.9183 18.8673Z" fill="black"/>
<path d="M22.2187 6.573H6.24609V8.61576H22.2187V6.573Z" fill="black"/>
<path d="M22.2187 11.9592H6.24609V14.0027H22.2187V11.9592Z" fill="black"/>
</g>
<defs>
<clipPath id="clip0_136_26">
<rect width="35" height="35" fill="white"/>
</clipPath>
</defs>
</svg>
